<?xml version="1.0" encoding="utf-8"?>
<!-- Generator: Adobe Illustrator 26.3.1, SVG Export Plug-In . SVG Version: 6.00 Build 0)  -->
<svg version="1.1" id="Layer_1" xmlns="http://www.w3.org/2000/svg" xmlns:xlink="http://www.w3.org/1999/xlink" x="0px" y="0px"
	 viewBox="0 0 275 275" style="enable-background:new 0 0 275 275;" xml:space="preserve">
<style type="text/css">
	.st0{fill:url(#SVGID_1_);}
	.st1{fill:url(#SVGID_00000113329277845628055540000015275919071846056103_);}
	.st2{fill:url(#SVGID_00000115476459432457663760000014549598020642190214_);}
	.st3{fill:url(#SVGID_00000073701118080813762730000016781649363050215858_);}
	.st4{fill:url(#SVGID_00000161618630431731293010000002121334670337398926_);}
	.st5{fill:url(#SVGID_00000098914793265825198630000003245782750344388793_);}
	.st6{fill:url(#SVGID_00000142174251154344847540000005626236966343563967_);}
	.st7{fill:url(#SVGID_00000160178717547390025240000011365245659444987838_);}
	.st8{fill:url(#SVGID_00000146497910870355781950000006946171065303620738_);}
</style>
<g>
	
		<linearGradient id="SVGID_1_" gradientUnits="userSpaceOnUse" x1="-537.791" y1="-439.133" x2="-383.139" y2="-284.482" gradientTransform="matrix(1 0 0 1 579.16 480.4)">
		<stop  offset="0" style="stop-color:#2942EE"/>
		<stop  offset="1" style="stop-color:#008BFF"/>
	</linearGradient>
	<path class="st0" d="M191.4,122.9c-6.6,5.7-8.3,14.8-5.2,22.2c0.9,2.2,0.4,4.7-1.3,6.3l-0.1,0.1c-1.7,1.7-4.2,2.2-6.3,1.3
		c-7-3-15.5-1.6-21.2,4.1c0,0,0,0,0,0c0,0,0,0,0,0c-5.7,5.7-7.1,14.2-4.1,21.3c0.9,2.1,0.3,4.6-1.3,6.3l-0.1,0.1
		c-1.6,1.6-4.1,2.2-6.3,1.3c-4.9-2.1-10.6-2-15.5,0.2c-1.9,0.9-4.2,0.3-5.7-1.2l-0.6-0.6c-1.6-1.6-1.9-4-1-6.1
		c3.7-8.8,0.6-19.9-9.3-25c-2.6-1.3-5.6-1.9-8.5-1.9h0c-2.8,0-5.4,0.6-7.9,1.7c-1.9,0.9-4.2,0.3-5.7-1.2l-0.6-0.6
		c-1.5-1.5-2.1-3.8-1.2-5.7c2.2-5,2.2-10.8,0-15.8c-0.8-1.9-0.3-4.2,1.2-5.7l0.7-0.7c1.5-1.5,3.8-2,5.7-1.2c2.4,1.1,5.1,1.7,7.8,1.7
		h0c2.9,0,5.8-0.6,8.4-1.9c6.9-3.6,10.9-10.2,10.9-17.5c0-2.6-0.5-5.1-1.5-7.4c-0.9-2.2-0.4-4.8,1.3-6.5c1.7-1.7,4.3-2.2,6.5-1.3
		c2.4,1,4.9,1.5,7.4,1.5c2.6,0,5.1-0.5,7.5-1.5c2.2-0.9,4.7-0.4,6.4,1.3c1.7,1.7,2.2,4.2,1.3,6.4c-2,4.8-2,10.2,0,15
		c0.9,2.2,0.4,4.8-1.3,6.5c-1.7,1.7-4.2,2.3-6.5,1.3c-7-2.9-15.4-1.5-21.1,4.2c-3.6,3.7-5.6,8.5-5.6,13.7c0,5.2,2,10.1,5.6,13.7
		c3.8,3.8,8.7,5.7,13.7,5.7c5,0,9.9-1.9,13.7-5.7c5.8-5.8,7.1-14.4,4-21.4c-0.9-2.2-0.4-4.7,1.3-6.4c1.7-1.7,4.2-2.2,6.4-1.3
		c2.5,1.1,5.1,1.6,7.7,1.6c5,0,9.9-1.9,13.7-5.7c3.6-3.7,5.7-8.5,5.7-13.7c0-1.8-0.3-3.6-0.8-5.4c-0.9-3.1-2.5-6-4.9-8.3
		c-5.8-5.8-14.3-7.1-21.4-4.1c-2.2,0.9-4.7,0.4-6.3-1.3c-1.7-1.7-2.2-4.2-1.3-6.4c3.2-7.4,1.5-16.5-5-22.3
		c-7.2-6.4-18.5-6.3-25.7,0.1c-4.1,3.7-6.4,8.9-6.4,14.4c0,2.7,0.6,5.3,1.6,7.7c1,2.2,0.4,4.7-1.3,6.4c-1.7,1.7-4.2,2.2-6.4,1.3
		c-2.4-1-5-1.6-7.7-1.6h0c-3,0-6,0.6-8.6,2c-9.9,5.2-13,16.3-9.1,25.2c0.9,2.1,0.6,4.5-1,6.1l-0.6,0.6c-1.5,1.5-3.8,2-5.8,1.2
		c-2.5-1.2-5.2-1.8-8.1-1.8h0c-3,0-5.9,0.6-8.5,1.9c-6.9,3.6-10.8,10.2-10.8,17.5c0,5.2,2,10,5.7,13.7c3.8,3.8,8.7,5.7,13.7,5.7
		c2.7,0,5.5-0.6,8-1.7c1.9-0.9,4.3-0.4,5.8,1.2l0.5,0.5c1.6,1.6,1.9,4,1,6.1c-3.8,8.8-0.8,19.9,9.1,25.1c2.6,1.4,5.6,2,8.6,2h0
		c2.8,0,5.5-0.6,8-1.7c2-0.9,4.3-0.4,5.8,1.2l0.5,0.5c1.5,1.5,2,3.8,1.2,5.8c-1.1,2.5-1.7,5.2-1.7,8c0,5.2,2,10,5.7,13.7
		c3.8,3.8,8.7,5.7,13.7,5.7c5,0,9.9-1.9,13.7-5.7c5.8-5.8,7.1-14.4,4-21.5c-0.9-2.2-0.4-4.7,1.3-6.3c1.7-1.7,4.2-2.2,6.3-1.3
		c2.5,1.1,5.1,1.6,7.8,1.6c5,0,9.9-1.9,13.7-5.7c0,0,0,0,0,0c0,0,0,0,0,0c5.8-5.8,7.1-14.4,4-21.4c-0.9-2.2-0.4-4.7,1.3-6.4
		c1.7-1.7,4.2-2.2,6.4-1.3c2.4,1.1,5.1,1.6,7.7,1.6c5,0,9.9-1.9,13.7-5.7c7.7-7.7,7.5-20.3-0.4-27.8
		C210.2,116.8,198.8,116.5,191.4,122.9z"/>
	
		<linearGradient id="SVGID_00000106857990293541987590000014386383586392230591_" gradientUnits="userSpaceOnUse" x1="-471.3895" y1="-505.5345" x2="-316.7375" y2="-350.8824" gradientTransform="matrix(1 0 0 1 579.16 480.4)">
		<stop  offset="0" style="stop-color:#2942EE"/>
		<stop  offset="1" style="stop-color:#008BFF"/>
	</linearGradient>
	<path style="fill:url(#SVGID_00000106857990293541987590000014386383586392230591_);" d="M204.2,86c3.8,0,7.6-1.4,10.4-4.3
		c5.8-5.8,5.8-15.1,0-20.9c-5.8-5.8-15.1-5.8-20.8,0c-2.8,2.8-4.3,6.5-4.3,10.4s1.5,7.6,4.3,10.4C196.6,84.6,200.4,86,204.2,86z"/>
	
		<linearGradient id="SVGID_00000133508925814437010180000007251440574231856025_" gradientUnits="userSpaceOnUse" x1="-537.8245" y1="-439.0995" x2="-383.1725" y2="-284.4475" gradientTransform="matrix(1 0 0 1 579.16 480.4)">
		<stop  offset="0" style="stop-color:#2942EE"/>
		<stop  offset="1" style="stop-color:#008BFF"/>
	</linearGradient>
	<path style="fill:url(#SVGID_00000133508925814437010180000007251440574231856025_);" d="M204,189.2c-3.9,0-7.6,1.5-10.4,4.3
		c-2.8,2.8-4.3,6.5-4.3,10.4c0,3.9,1.5,7.6,4.3,10.4c2.9,2.9,6.6,4.3,10.4,4.3c3.8,0,7.6-1.4,10.4-4.3c5.8-5.8,5.8-15.1,0-20.9
		C211.6,190.7,207.9,189.2,204,189.2z"/>
	
		<linearGradient id="SVGID_00000045580085881127325120000005417690565627458197_" gradientUnits="userSpaceOnUse" x1="-603.9773" y1="-372.9467" x2="-449.3253" y2="-218.2957" gradientTransform="matrix(1 0 0 1 579.16 480.4)">
		<stop  offset="0" style="stop-color:#2942EE"/>
		<stop  offset="1" style="stop-color:#008BFF"/>
	</linearGradient>
	<path style="fill:url(#SVGID_00000045580085881127325120000005417690565627458197_);" d="M61.3,193.5c-2.8,2.8-4.3,6.5-4.3,10.4
		c0,3.9,1.5,7.6,4.3,10.4c2.9,2.9,6.7,4.3,10.4,4.3c3.8,0,7.6-1.4,10.4-4.3c5.8-5.8,5.8-15.1,0-20.9C76.3,187.8,67,187.8,61.3,193.5
		z"/>
	
		<linearGradient id="SVGID_00000059308209306995094670000006643853082636759205_" gradientUnits="userSpaceOnUse" x1="-537.7351" y1="-439.1899" x2="-383.0831" y2="-284.5389" gradientTransform="matrix(1 0 0 1 579.16 480.4)">
		<stop  offset="0" style="stop-color:#2942EE"/>
		<stop  offset="1" style="stop-color:#008BFF"/>
	</linearGradient>
	<path style="fill:url(#SVGID_00000059308209306995094670000006643853082636759205_);" d="M71.7,86.2c3.8,0,7.5-1.4,10.4-4.3
		c5.8-5.8,5.8-15.1,0-20.9c-2.8-2.8-6.5-4.3-10.4-4.3c-3.9,0-7.6,1.5-10.4,4.3c-2.8,2.8-4.3,6.5-4.3,10.4c0,3.9,1.5,7.6,4.3,10.4
		C64.1,84.8,67.9,86.2,71.7,86.2z"/>
	
		<linearGradient id="SVGID_00000114772770839352835500000015771574006039652736_" gradientUnits="userSpaceOnUse" x1="-480.8958" y1="-496.0283" x2="-326.2448" y2="-341.3773" gradientTransform="matrix(1 0 0 1 579.16 480.4)">
		<stop  offset="0" style="stop-color:#2942EE"/>
		<stop  offset="1" style="stop-color:#008BFF"/>
	</linearGradient>
	<path style="fill:url(#SVGID_00000114772770839352835500000015771574006039652736_);" d="M251.5,122.9c-8.1,0-14.8,6.6-14.8,14.8
		s6.6,14.8,14.8,14.8s14.7-6.6,14.7-14.8S259.6,122.9,251.5,122.9z"/>
	
		<linearGradient id="SVGID_00000150786630452537183980000006814402806136748448_" gradientUnits="userSpaceOnUse" x1="-594.5703" y1="-382.3538" x2="-439.9193" y2="-227.7018" gradientTransform="matrix(1 0 0 1 579.16 480.4)">
		<stop  offset="0" style="stop-color:#2942EE"/>
		<stop  offset="1" style="stop-color:#008BFF"/>
	</linearGradient>
	<path style="fill:url(#SVGID_00000150786630452537183980000006814402806136748448_);" d="M138.2,236.9c-8.1,0-14.7,6.6-14.7,14.8
		c0,8.1,6.6,14.8,14.7,14.8c8.1,0,14.8-6.6,14.8-14.8C153,243.5,146.3,236.9,138.2,236.9z"/>
	
		<linearGradient id="SVGID_00000114043600897887478360000009396540726604423823_" gradientUnits="userSpaceOnUse" x1="-594.9155" y1="-382.0085" x2="-440.2635" y2="-227.3575" gradientTransform="matrix(1 0 0 1 579.16 480.4)">
		<stop  offset="0" style="stop-color:#2942EE"/>
		<stop  offset="1" style="stop-color:#008BFF"/>
	</linearGradient>
	<path style="fill:url(#SVGID_00000114043600897887478360000009396540726604423823_);" d="M23.5,122.9c-8.1,0-14.7,6.6-14.7,14.8
		s6.6,14.8,14.7,14.8s14.7-6.6,14.7-14.8S31.6,122.9,23.5,122.9z"/>
	
		<linearGradient id="SVGID_00000171681173681539745750000005677512071769395369_" gradientUnits="userSpaceOnUse" x1="-480.6803" y1="-496.2437" x2="-326.0293" y2="-341.5917" gradientTransform="matrix(1 0 0 1 579.16 480.4)">
		<stop  offset="0" style="stop-color:#2942EE"/>
		<stop  offset="1" style="stop-color:#008BFF"/>
	</linearGradient>
	<path style="fill:url(#SVGID_00000171681173681539745750000005677512071769395369_);" d="M137.6,38.1c8.1,0,14.7-6.6,14.7-14.8
		c0-8.1-6.6-14.7-14.7-14.7c-8.1,0-14.7,6.6-14.7,14.8C122.9,31.5,129.5,38.1,137.6,38.1z"/>
</g>
</svg>
