<?xml version="1.0" encoding="UTF-8"?><svg id="Layer_1" xmlns="http://www.w3.org/2000/svg" xmlns:xlink="http://www.w3.org/1999/xlink" viewBox="0 0 1024 922"><defs><style>.cls-1{fill:none;}.cls-2{fill:url(#linear-gradient);}.cls-3{clip-path:url(#clippath);}.cls-4{fill:aqua;}.cls-5{fill:#1b1464;}.cls-6{clip-path:url(#clippath-1);}.cls-7{clip-path:url(#clippath-4);}.cls-8{clip-path:url(#clippath-3);}.cls-9{clip-path:url(#clippath-2);}.cls-10{clip-path:url(#clippath-5);}.cls-11{fill:url(#linear-gradient-8);}.cls-12{fill:url(#linear-gradient-9);}.cls-13{fill:url(#linear-gradient-3);}.cls-14{fill:url(#linear-gradient-4);}.cls-15{fill:url(#linear-gradient-2);}.cls-16{fill:url(#linear-gradient-6);}.cls-17{fill:url(#linear-gradient-7);}.cls-18{fill:url(#linear-gradient-5);}.cls-19{fill:url(#linear-gradient-41);}.cls-20{fill:url(#linear-gradient-40);}.cls-21{fill:url(#linear-gradient-43);}.cls-22{fill:url(#linear-gradient-42);}.cls-23{fill:url(#linear-gradient-45);}.cls-24{fill:url(#linear-gradient-46);}.cls-25{fill:url(#linear-gradient-44);}.cls-26{fill:url(#linear-gradient-47);}.cls-27{fill:url(#linear-gradient-48);}.cls-28{fill:url(#linear-gradient-14);}.cls-29{fill:url(#linear-gradient-18);}.cls-30{fill:url(#linear-gradient-22);}.cls-31{fill:url(#linear-gradient-20);}.cls-32{fill:url(#linear-gradient-21);}.cls-33{fill:url(#linear-gradient-23);}.cls-34{fill:url(#linear-gradient-15);}.cls-35{fill:url(#linear-gradient-19);}.cls-36{fill:url(#linear-gradient-16);}.cls-37{fill:url(#linear-gradient-17);}.cls-38{fill:url(#linear-gradient-13);}.cls-39{fill:url(#linear-gradient-12);}.cls-40{fill:url(#linear-gradient-10);}.cls-41{fill:url(#linear-gradient-11);}.cls-42{fill:url(#linear-gradient-27);}.cls-43{fill:url(#linear-gradient-24);}.cls-44{fill:url(#linear-gradient-26);}.cls-45{fill:url(#linear-gradient-38);}.cls-46{fill:url(#linear-gradient-35);}.cls-47{fill:url(#linear-gradient-37);}.cls-48{fill:url(#linear-gradient-34);}.cls-49{fill:url(#linear-gradient-39);}.cls-50{fill:url(#linear-gradient-36);}.cls-51{fill:url(#linear-gradient-25);}.cls-52{fill:url(#linear-gradient-28);}.cls-53{fill:url(#linear-gradient-29);}.cls-54{fill:url(#linear-gradient-33);}.cls-55{fill:url(#linear-gradient-30);}.cls-56{fill:url(#linear-gradient-32);}.cls-57{fill:url(#linear-gradient-31);}.cls-58{isolation:isolate;}</style><clipPath id="clippath"><rect class="cls-1" x="2.75" y="433.71" width="1014.23" height="477.09"/></clipPath><clipPath id="clippath-1"><polyline class="cls-1" points="2.75 910.8 2.75 449.81 1016.97 449.81 1016.97 910.8 2.75 910.8"/></clipPath><clipPath id="clippath-2"><polyline class="cls-1" points="16.25 882.58 16.25 433.71 1003.83 433.71 1003.83 882.58 16.25 882.58"/></clipPath><clipPath id="clippath-3"><rect class="cls-1" x="5.38" y="7.17" width="1014.49" height="476.97"/></clipPath><clipPath id="clippath-4"><polyline class="cls-1" points="5.38 484.14 5.38 23.03 1019.87 23.03 1019.87 484.14 5.38 484.14"/></clipPath><clipPath id="clippath-5"><polyline class="cls-1" points="18.65 456.04 18.65 7.17 1006.24 7.17 1006.24 456.04 18.65 456.04"/></clipPath><linearGradient id="linear-gradient" x1="972.89" y1="661" x2="972.89" y2="272" gradientTransform="matrix(1, 0, 0, 1, 0, 0)" gradientUnits="userSpaceOnUse"><stop offset="0" stop-color="#1b1464" stop-opacity=".5"/><stop offset="1" stop-color="#1b1464"/></linearGradient><linearGradient id="linear-gradient-2" x1="972.89" y1="661" x2="972.89" y2="272" xlink:href="#linear-gradient"/><linearGradient id="linear-gradient-3" x1="972.89" y1="661" x2="972.89" y2="272" xlink:href="#linear-gradient"/><linearGradient id="linear-gradient-4" x1="972.89" y1="661" x2="972.89" y2="272" xlink:href="#linear-gradient"/><linearGradient id="linear-gradient-5" x1="972.89" y1="661" x2="972.89" y2="272" xlink:href="#linear-gradient"/><linearGradient id="linear-gradient-6" x1="972.89" y1="661" x2="972.89" y2="272" xlink:href="#linear-gradient"/><linearGradient id="linear-gradient-7" x1="972.89" y1="661" x2="972.89" y2="272" xlink:href="#linear-gradient"/><linearGradient id="linear-gradient-8" x1="972.89" y1="661" x2="972.89" y2="272" xlink:href="#linear-gradient"/><linearGradient id="linear-gradient-9" x1="972.89" y1="661" x2="972.89" y2="272" xlink:href="#linear-gradient"/><linearGradient id="linear-gradient-10" x1="972.89" y1="661" x2="972.89" y2="272" xlink:href="#linear-gradient"/><linearGradient id="linear-gradient-11" x1="972.89" y1="661" x2="972.89" y2="272" xlink:href="#linear-gradient"/><linearGradient id="linear-gradient-12" x1="972.89" y1="661" x2="972.89" y2="272" xlink:href="#linear-gradient"/><linearGradient id="linear-gradient-13" x1="972.89" y1="661" x2="972.89" y2="272" xlink:href="#linear-gradient"/><linearGradient id="linear-gradient-14" x1="972.89" y1="661" x2="972.89" y2="272" xlink:href="#linear-gradient"/><linearGradient id="linear-gradient-15" x1="972.89" y1="661" x2="972.89" y2="272" xlink:href="#linear-gradient"/><linearGradient id="linear-gradient-16" x1="972.89" y1="661" x2="972.89" y2="272" xlink:href="#linear-gradient"/><linearGradient id="linear-gradient-17" x1="52.5" x2="52.5" xlink:href="#linear-gradient"/><linearGradient id="linear-gradient-18" x1="52.5" y1="661" x2="52.5" y2="272" xlink:href="#linear-gradient"/><linearGradient id="linear-gradient-19" x1="52.5" y1="661" x2="52.5" y2="272" xlink:href="#linear-gradient"/><linearGradient id="linear-gradient-20" x1="52.5" y1="661" x2="52.5" y2="272" xlink:href="#linear-gradient"/><linearGradient id="linear-gradient-21" x1="52.5" y1="661" x2="52.5" y2="272" xlink:href="#linear-gradient"/><linearGradient id="linear-gradient-22" x1="52.5" y1="661" x2="52.5" y2="272" xlink:href="#linear-gradient"/><linearGradient id="linear-gradient-23" x1="52.5" y1="661" x2="52.5" y2="272" xlink:href="#linear-gradient"/><linearGradient id="linear-gradient-24" x1="52.5" y1="661" x2="52.5" y2="272" xlink:href="#linear-gradient"/><linearGradient id="linear-gradient-25" x1="52.5" y1="661" x2="52.5" y2="272" xlink:href="#linear-gradient"/><linearGradient id="linear-gradient-26" x1="52.5" y1="661" x2="52.5" y2="272" xlink:href="#linear-gradient"/><linearGradient id="linear-gradient-27" x1="52.5" y1="661" x2="52.5" y2="272" xlink:href="#linear-gradient"/><linearGradient id="linear-gradient-28" x1="52.5" y1="661" x2="52.5" y2="272" xlink:href="#linear-gradient"/><linearGradient id="linear-gradient-29" x1="52.5" y1="661" x2="52.5" y2="272" xlink:href="#linear-gradient"/><linearGradient id="linear-gradient-30" x1="52.5" y1="661" x2="52.5" y2="272" xlink:href="#linear-gradient"/><linearGradient id="linear-gradient-31" x1="52.5" y1="661" x2="52.5" y2="272" xlink:href="#linear-gradient"/><linearGradient id="linear-gradient-32" x1="52.5" y1="661" x2="52.5" y2="272" xlink:href="#linear-gradient"/><linearGradient id="linear-gradient-33" x1="513.5" y1="862" x2="513.5" y2="473" xlink:href="#linear-gradient"/><linearGradient id="linear-gradient-34" x1="513.5" y1="862" x2="513.5" y2="473" xlink:href="#linear-gradient"/><linearGradient id="linear-gradient-35" x1="513.5" y1="862" x2="513.5" y2="473" xlink:href="#linear-gradient"/><linearGradient id="linear-gradient-36" x1="513.5" y1="862" x2="513.5" y2="473" xlink:href="#linear-gradient"/><linearGradient id="linear-gradient-37" x1="513.5" y1="862" x2="513.5" y2="473" xlink:href="#linear-gradient"/><linearGradient id="linear-gradient-38" x1="513.5" y1="862" x2="513.5" y2="473" xlink:href="#linear-gradient"/><linearGradient id="linear-gradient-39" x1="513.5" y1="862" x2="513.5" y2="473" xlink:href="#linear-gradient"/><linearGradient id="linear-gradient-40" x1="513.5" y1="862" x2="513.5" y2="473" xlink:href="#linear-gradient"/><linearGradient id="linear-gradient-41" x1="513.5" y1="862" x2="513.5" y2="473" xlink:href="#linear-gradient"/><linearGradient id="linear-gradient-42" x1="513.5" y1="862" x2="513.5" y2="473" xlink:href="#linear-gradient"/><linearGradient id="linear-gradient-43" x1="513.5" y1="862" x2="513.5" y2="473" xlink:href="#linear-gradient"/><linearGradient id="linear-gradient-44" x1="513.5" y1="862" x2="513.5" y2="473" xlink:href="#linear-gradient"/><linearGradient id="linear-gradient-45" x1="513.5" y1="862" x2="513.5" y2="473" xlink:href="#linear-gradient"/><linearGradient id="linear-gradient-46" x1="513.5" y1="862" x2="513.5" y2="473" xlink:href="#linear-gradient"/><linearGradient id="linear-gradient-47" x1="513.5" y1="862" x2="513.5" y2="473" xlink:href="#linear-gradient"/><linearGradient id="linear-gradient-48" x1="513.5" y1="862" x2="513.5" y2="473" xlink:href="#linear-gradient"/></defs><g class="cls-58"><g class="cls-3"><g><g class="cls-6"><path class="cls-5" d="M18.19,663.68l-.64,.29c-9.71,4.41-14.64,10.17-14.8,15.95v.6c.16,5.78,5.1,11.54,14.8,15.95l456.73,207.59c9.87,4.49,22.82,6.73,35.76,6.73s25.88-2.24,35.76-6.73l456.37-207.43c9.71-4.41,14.64-10.17,14.81-15.95v-.59c-.16-5.78-5.1-11.54-14.81-15.95l-.46-.21c-1.86,2.44-4.94,4.74-9.23,6.69l-455.01,206.81c-7.58,3.44-17.51,5.16-27.42,5.16s-19.85-1.72-27.43-5.16L27.6,670.61c-4.44-2.02-7.57-4.4-9.41-6.93m340.57,88.63c-4.72,0-8.92-.24-12.52-.71-24.86-3.22-20-18.37,11.05-18.44h0c3.47-.01,7.26,.16,11.37,.56l.52,.06,.45,.05c2.9,.32,5.87,.74,8.86,1.22l1.5,.25c5.02,.89,10.39,1.87,16.07,2.97,8.41,1.66,16.29,3.31,22.05,4.48l4.82,1.05c-5.81,1.27-11.16,2.34-15.18,3.12-19.48,3.64-36.2,5.38-49,5.38m130.03-34.77c-1.37-.82-2.48-1.72-3.31-2.68l-.45-.47c2.31,.53,4.99,1.27,7.97,2.32h-.14c-1.46,.17-2.83,.45-4.08,.83m237.25-167.06l-1.91,.97c-11.19,5.65-21.65,11.58-31.3,17.78-4.37,2.73-8.3,5.61-11.74,8.6-2.77,2.26-4.97,4.66-6.55,7.14-.58,.68-.86,1.39-.87,2.12v.05c-3.33,.47-5.59,1.89-5.53,3.47-.06,1.48,1.9,2.83,4.92,3.4,1,4.44,2.11,13.65,1.85,26.31l-.11,1.7c-.75,9.48-4.6,18.86-11.42,27.83-.37-.1-.71-.16-.97-.16h-.08c-.78,.04-2.92,1.44-4.99,3-1.52,1.08-3.13,2.34-4.05,3.48-.5,.53-.77,1.1-.79,1.67-.05,.35,.04,.71,.26,1.05,.27,.45,.59,.69,.59,.69l-.08,.09c-.4,.23-.65,.5-.74,.8l-.32,.35c-2.06,2.14-4.33,4.25-6.79,6.3l-2.03,1.7c-.61,.46-1.22,.92-1.84,1.37-.18-.06-.38-.12-.58-.17-.22-.01-.44-.02-.66-.02-.82,0-1.63,.11-2.32,.31-1.23,.42-3.97,2.32-13.1,4.4-3.1,.71-5.94,1.11-8.42,1.37,3.52-8.17,5.7-16.45,6.53-24.76,.41-4.23-.15-8.46-1.68-12.64,.08-.12,.08-.2,.08-.2l-.14,.12c-.69-1.85-1.6-3.67-2.74-5.47-3.56-6.1-10.07-11.76-19.05-16.57-16.6-9.01-39.36-13.63-59.36-13.93l-3.28-.02c0-.09,0-.18,.05-.26,.32-.68,.48-1.08,0-1.08-.35,0-1.05,.22-2.29,.7-.51,.2-1.02,.42-1.49,.64-1.4,.01-2.66,.05-3.84,.09-.1-.43-.13-.87-.08-1.3,.06-.56,.29-1-.22-1-.32,0-.94,.18-2.07,.62-1.53,.54-2.8,1.23-3.73,2-1.31,.1-2.11,.19-2.11,.19l1.19-.03-1.24,.1c-.42-.5-1.4-1.26-1.26-1.91,.16-.87,.55-1.3,.34-1.3-.14,0-.5,.17-1.31,.52-2.58,1.08-5.32,2.7-5.8,3.58l-2.52,.36c-.48-.21-1.94-.84-2.27-2.13-.21-.8-.28-1.37-.71-1.37-.28,0-.69,.23-1.39,.76-1.64,1.3-2.8,2.7-3.42,4.17-.85,.18-1.66,.36-2.45,.55-1.02-.59-1.55-1.32-1.5-2.07-.08-1.07,.35-2.02,0-2.02-.22,0-.7,.34-1.76,1.21-1.75,1.53-3.04,3.16-3.84,4.85-.95,.3-1.86,.61-2.76,.94-.12-.68-.18-1.35-.21-2.03-.04-1.02,.17-2.08-.15-2.08-.22,0-.67,.48-1.61,1.78-.68,.95-1.39,2.3-1.85,3.84-10.63,4.6-17.1,10.96-16.94,18.8v.09c-.03,1.39,.13,2.72,.37,3.95,.52,2.85,1.49,5.24,2.82,7.23-2.5,1.56-2.72,8.24-.27,9.79,1.93,1.24,13.05,4.18,15.43,4.77,.96,.3,1.8,.68,2.47,1.11,3.02,2.25,3.02,6.79,.71,9.12-2.82,2.84,2.82,3.41,7.5,3.82,.95,.09,1.96,.13,2.98,.13,4.03,0,8.2-.63,9.21-1.54,1.23-1.13-4.05-3.7-6.24-8.94-2.21-5.25,3.42-5.67,3.42-5.67,0,0,2.5,.29,6.24,2.98,2.89,2.09,5.98,3.74,8.84,4.93-1.47,.83-3.27,1.53-5.28,2.06,.14,0,.27,0,.4,0,3.02,0,5.98-.63,7.59-1.04,.6,.19,1.22,.37,1.87,.53-.42,.21-.86,.4-1.31,.6,.96-.04,1.92-.13,2.84-.26,.71,.13,1.45,.23,2.21,.26h.2c4.21,0,14.8-4.41,14.8-5.25,0-.21-.4-.48-1-.75-1.11-.54-3.16-1.2-5.45-2.12-1.04-.43-2.01-.89-2.89-1.39-2.14-1.3-3.43-2.85-3.72-4.47v-.12l-.07-.38s.18-.08,.41-.24v.05l.11-.12c1.37-.96,3.94-4.54-12.37-12.89-6.83-3.51-15.09-6.37-24.31-8.45-1.11-5.65,3.94-10.92,16.47-13.51l-.13,.06,.22-.07c5.16-1.05,11.56-1.67,19.31-1.67,1.22,0,2.47,.02,3.75,.05,18.16,.43,32.1,4.29,41.84,10.1,13.52,8.52,19.41,21.29,15.12,34.16-1.78,.78-1.44,.9-.34,.92-.41,1.1-.89,2.19-1.44,3.27l-.71,.18c-3.24,.89-1.87,.87,0,1.1l-.16,.24c-.52,.78-1.12,1.55-1.74,2.3-.77,.1-1.54,.23-2.29,.36-3.55,.63-2.11,.71-.32,1.09l1.15,.26c-.84,.95-1.73,1.91-2.65,2.83-.71,.05-1.41,.12-2.11,.2-3.73,.43-2.31,.6-.63,1.08,.36,.1,.71,.21,1.05,.32-.9,.87-1.84,1.72-2.82,2.56-1.36,.03-2.71,.14-4.02,.3-3.68,.43-2.29,.6-.6,1.08,.89,.24,1.58,.49,2.13,.71-.82,.67-1.66,1.32-2.5,1.97l-.6,.43c-.31,0-.61-.01-.92-.01-1.53,0-3.05,.1-4.51,.3-3.73,.43-2.31,.6-.63,1.08,.98,.28,1.9,.59,2.74,.95-1.08,.72-2.19,1.43-3.31,2.15-1.09-.13-2.21-.19-3.32-.19-.91,0-1.83,.04-2.74,.13-3.78,.24-2.41,.48-.86,1.03,1.79,.64,2.66,1.18,3.11,1.41l-1.63,1c-1.16-.69-3.92-1.48-6.47-2.31-2.3-.73-4.9-1.26-7.63-1.55-1.12,0-4.35,2.5-19.92,2.5-2.05,0-4.33-.05-6.84-.14-21.55-.85-22.9-1.79-24.79-1.79s-5.87,.68-6,.71l-.89-.24c-8.84-2.48-17.37-5.17-25.57-8.06-12.21-4.43-18.95-7.73-18.95-7.73,0,0,3.6-1.5-1.24-3.4-2.8-1.19-5.77-2.3-8.89-3.31-2.02-.72-4.15-1.39-6.36-1.98-.8-.5-1.57-1-2.31-1.52-3.36-2.45-6.54-4.96-9.56-7.51-2.32-2.07-4.51-4.17-6.57-6.3-4.21-4.3-7.11-8.16-9.11-11.53-1.97-3.62-3.28-7.31-3.9-11.04-.07-.97-.04-1.93,.11-2.89,2.62-.93,4.15-2.35,4.16-3.86,0-2.45-4.06-4.55-9.42-4.87-5.36-5.11-25.83-17.66-102.13-44.01l-3.34-1.17,.13,.05-.94-.32c77.72,30.26,92.87,42.08,96.88,47.02-.25,.12-.49,.26-.71,.39-.16-.05-.32-.1-.48-.16,.48,0,.66-.06,.66-.06,0,0-17.68-6.53-47.02-14.71-29.44-8.21-46.02-10.15-49.46-10.49l-.71-.07s5.43,2.27,4.58,3.41c-.26,.38-4.42,.27-11.08,.34-6.4,.01-12.78,.3-19.07,.84-14.74,1.18-28.78,3.75-41.23,7.53-34.33,10.39-40.6,17.77-40.6,17.77,0,0,14.47-9.19,41.57-15.61-.37,4.03-1.23,23.55,11.71,49.27,13.97,27.74,40.28,53.66,42.46,55.79,.11,2.13,.42,3.25,.42,3.25,0,0,3.9-21.4,19.89-43.61,4.61,3.39,19.94,13.36,54.62,25.07,42.83,14.47,62.36,18.37,63.14,18.51,.03,1.87,.13,2.87,.13,2.87,0,0,.13-1.2,.47-3.14,1.16-.78,7.85-5.14,14.53-8.02,4.36-1.94,9.12-3.68,14.21-5.2,.84,1.32,1.66,2.44,2.45,3.3-.53-1.16-.95-2.27-1.37-3.37,2.81,.12,14.15,.79,31.73,4.7,9.03,2.01,16.03,4.72,21,7.12-.13,.02-.25,.05-.37,.08-.12,.02,3.24,1.34,7.08,4.82-.82-.02-1.64-.02-2.46-.02-5.66,0-11.3,.35-16.76,1.02-.79-.76-1.66-1.52-2.57-2.26-.17-.56-.51-1.1-1.03-1.62-.71-.73-2.5-1.19-4.32-1.67-.8-.35-1.72-.65-2.73-.87-.61-.24-1.11-.54-1.45-.87-.63-.63-2.62-.89-5.23-.89-6.51,0-16.85,1.6-19.56,3.04-4.61,2.44-5.5,5.55-3.68,7.27,.55,.54,1.84,.98,3.63,1.31,.05,2.64,3.6,8.97,10.63,13.56-1.34-2.63-2.29-5.29-2.84-7.97-.23-1.91,0-3.28,.4-4.19,1.24,3.92,4.58,8.18,15.18,13.46-6.53-6.46-5.79-10.31-5.13-13.68l.23-.53h.16c.95,3.14,3.73,6.38,12.68,11.52-.14-.11-.25-.23-.37-.34l.37,.25c-4.4-3.77-5.95-8.1-4.39-12.32l.21-.03c1.21,.36,2.39,.84,3.53,1.5,3.37,2.06,4.94,4.18,5.58,5.62-.73,1.58-.1,3.22,1.76,4.59-6.45,2.14-12.77,4.14-18.94,5.99-6.06,1.78-12.9,3.74-19.92,5.62-3.69,.95-7.34,1.89-10.9,2.75l-3.55-.92h.04l-.21-.05c-25.52-6.69-44.46-11.14-66.25-12.94-3.42-.28-6.79-.41-10.1-.41-20.35,0-37.64,5.13-42.08,13.35-3.36,6.33,2.48,12.97,14.53,16.5l.32,.1c.34,.12,.68,.2,1.05,.31l1.58,.43h.05c5.05,1.32,11.16,2.29,18.18,2.83l.74,.06h.15c3.59,.28,7.21,.45,10.84,.53,1.22,.03,2.45,.04,3.7,.04,24.9,0,54.49-5.25,83.73-11.78,2.63,.65,5.32,1.3,8.05,1.99,40.31,10.09,71.14,14.9,101.07,14.9,19.84,0,39.29-2.11,60.84-6.19-12.83,1.75-30.71,4.11-53.08,4.11-.67,0-1.33,0-2.01,0-.17-.03-.34-.06-.53-.07l.03,.07c-5.71-.04-11.39-.24-17.05-.6h0l-.79-.05v-.03l-.03,.02c-14.09-.93-27.85-2.68-40.94-5.21-6.7-1.28-13.24-2.73-19.6-4.33-8.86-2.23-17.69-4.5-26.47-6.81,9.16-2.13,18.22-4.34,27-6.52,9.34-2.26,17.68-4.33,24.16-5.98l.23-.05h.18s2.19-.23,4.21-.51c4.47-.62,10.79-1.78,18.29-3.38,.74,1.4,2.49,2.57,5.13,3.03,2.01,.35,3.83,.51,5.5,.51,3.46,0,6.19-.69,8.23-1.73l.48-.12,1.23-.44c1.31-.36,2.82-.8,4.1-1.08,.46-.09,.93-.18,1.39-.27,1.05-.12,2.05-.27,3.05-.44l.86-.12c-3.81,3.55-2.39,6.95-2.39,6.95,1.13-4.44,5.8-7.28,10.32-8.56,1.67-.32,3.41-.6,5.26-.8,1.68,0,3.05,.28,3.79,.84,1.84,1.44,5.71,2.32,9.58,2.71,.63,1.79-1.18,4.83-10.52,10.35l2.37-.74,.11-.03,1.89-.63c3.76-1.29,6.63-2.51,8.78-3.65,2.16-1.06,3.87-2.3,5.03-3.64,.32,2.39-1.13,6.06-8.18,12.39,0,0,8.33-3.3,13.52-7.54,.16,2.29-.26,5.3-1.66,9.39,9.08-8.05,8.55-12.98,6.29-15.86l-.26-.43c-.04-.26-.14-.52-.27-.78l1.11-.68c3.11-1.98-1.26-4.11-4.05-4.96-1.58-.48-5.27-1.84-11.94-1.88-2.29-1.25-4.82-1.8-7.75-1.8-4.63,0-10.24,1.38-17.46,3.53-1.4,.42-2.85,.79-4.36,1.12-.4-.49-.87-.95-1.45-1.4,4.21-1.15,8.58-2.38,13-3.69,8.34-2.47,14.55-4.97,19.15-7.35,13.42-6.18,18.15-12.2,31.84-17.29h-.34l1.58-.37c22.47-5.48,34.39-6.54,35.23-6.62l-.07,1.54,.47-1.5c4.69,1.04,8.97,2.43,12.66,4.11,3.77,1.72,6.98,3.69,9.52,5.83l1.15,3.6s0-1.4-.26-3.95c4.03-1.82,26.84-12.48,45.36-29.5,18.26-16.79,24.84-30.17,26.76-34.97,7.34,9.63,13.19,19.48,17.5,29.49,1.25,2.92,1.77,4,1.85,4,.22,0-2.12-6.43-2.66-8.46,2.55-4.03,13.57-22.39,16.5-44.92,2.63-20.1-1.72-33.24-3.69-37.96,17.05,6.42,26.18,15.63,26.18,15.63,0,0-1.05-1.94-4.95-5.22l.53,.32s-6.21-5.44-16.95-10.82c-1.35-.69-2.73-1.38-4.13-2.05-11.37-5.49-22.46-7.38-30.78-8.04-2.63-.24-5.35-.36-8.11-.36h-.49c-3.29-.03-5.29,.02-5.45-.31-.53-1.14,2.89-3.41,2.89-3.41,0,0-4.65,.55-14.57,3.95-6.06,2-13.68,4.9-22.45,9.09-8.23,3.79-16.04,7.76-23.42,11.9l-1.97,1.13c-.19-.07-.4-.14-.6-.2,1.99-3.95,9.48-13.31,46.68-36.98m.36-.23l-.36,.23,.33-.17,.03-.06"/></g><g class="cls-9"><path class="cls-4" d="M485.04,714.38l.45,.47c.83,.96,1.94,1.86,3.31,2.68,1.24-.39,2.62-.67,4.08-.83h.14c-2.98-1.05-5.66-1.79-7.97-2.32"/><path class="cls-4" d="M663.39,649.83c6.82-8.97,10.67-18.34,11.42-27.83l.11-1.7c.26-12.66-.85-21.87-1.85-26.31-3.02-.56-4.99-1.91-4.92-3.4-.06-1.59,2.2-3,5.53-3.47v-.05c0-.72,.3-1.44,.87-2.12,1.58-2.48,3.78-4.88,6.55-7.14,3.44-2.99,7.36-5.87,11.74-8.6,9.66-6.2,20.11-12.14,31.3-17.78l1.91-.97c-37.21,23.68-44.69,33.04-46.68,36.98,.21,.06,.41,.13,.6,.2l1.97-1.13c7.38-4.14,15.19-8.11,23.42-11.9,8.77-4.19,16.39-7.09,22.45-9.09,9.92-3.4,14.57-3.95,14.57-3.95,0,0-3.42,2.27-2.89,3.41,.15,.34,2.15,.28,5.45,.31h.49c2.76,0,5.48,.12,8.11,.36,8.32,.66,19.41,2.55,30.78,8.04,1.4,.67,2.78,1.36,4.13,2.05,10.74,5.39,16.95,10.82,16.95,10.82l-.53-.32c3.9,3.28,4.95,5.22,4.95,5.22,0,0-9.13-9.2-26.18-15.63,1.97,4.71,6.32,17.85,3.69,37.96-2.92,22.53-13.95,40.89-16.5,44.92,.54,2.04,2.88,8.46,2.66,8.46-.08,0-.6-1.08-1.85-4-4.3-10-10.15-19.86-17.5-29.49-1.92,4.8-8.5,18.18-26.76,34.97-18.52,17.02-41.33,27.68-45.36,29.5,.26,2.55,.26,3.95,.26,3.95l-1.15-3.6c-2.55-2.14-5.75-4.1-9.52-5.83-3.69-1.68-7.97-3.07-12.66-4.11l-.47,1.5,.07-1.54c-.84,.08-12.75,1.14-35.23,6.62l-1.58,.38h.34c-13.69,5.08-18.42,11.1-31.84,17.28-4.6,2.38-10.81,4.88-19.15,7.35-4.42,1.3-8.78,2.54-13,3.69,.58,.45,1.05,.91,1.45,1.4,1.51-.32,2.97-.69,4.36-1.12,7.22-2.16,12.83-3.53,17.46-3.53,2.93,0,5.45,.55,7.75,1.8,6.68,.04,10.36,1.4,11.94,1.88,2.79,.85,7.16,2.98,4.05,4.96l-1.11,.68c.14,.25,.23,.51,.27,.78l.26,.43c2.26,2.88,2.79,7.8-6.29,15.86,1.4-4.09,1.82-7.1,1.66-9.39-5.18,4.23-13.52,7.54-13.52,7.54,7.05-6.33,8.5-10,8.18-12.39-1.16,1.35-2.87,2.59-5.03,3.64-2.15,1.14-5.02,2.36-8.78,3.65l-1.89,.63-.11,.03-2.37,.74c9.34-5.52,11.15-8.56,10.52-10.35-3.86-.39-7.73-1.27-9.58-2.71-.74-.56-2.11-.84-3.79-.84-1.85,.21-3.58,.48-5.26,.8-4.53,1.28-9.19,4.11-10.32,8.56,0,0-1.41-3.4,2.39-6.95l-.86,.12c-1,.17-2,.32-3.05,.44-.47,.09-.94,.17-1.39,.27-1.29,.27-2.79,.72-4.1,1.08l-1.23,.44-.48,.12c-2.04,1.04-4.78,1.73-8.23,1.73-1.67,0-3.49-.16-5.5-.51-2.64-.46-4.39-1.63-5.13-3.03-7.5,1.6-13.82,2.76-18.29,3.38-2.02,.28-4.21,.5-4.21,.5h-.18l-.23,.06c-6.48,1.65-14.81,3.72-24.16,5.98-8.78,2.18-17.84,4.39-27,6.52,8.77,2.31,17.6,4.58,26.47,6.81,6.36,1.6,12.91,3.04,19.6,4.33,13.1,2.53,26.86,4.29,40.94,5.21l.03-.02v.03l.79,.03h0c5.65,.37,11.34,.57,17.05,.61l-.03-.07c.19,.01,.36,.03,.53,.07,.67,0,1.34,0,2.01,0,22.37,0,40.26-2.36,53.08-4.11-21.55,4.08-41,6.19-60.84,6.19-29.93,0-60.76-4.81-101.07-14.9-2.74-.69-5.43-1.34-8.05-1.99-29.24,6.54-58.82,11.78-83.73,11.78-1.25,0-2.47-.01-3.7-.04-3.64-.08-7.25-.25-10.84-.53h-.15l-.74-.06c-7.02-.55-13.13-1.52-18.18-2.83h-.05l-1.58-.43c-.37-.11-.71-.19-1.05-.31l-.32-.1c-12.04-3.53-17.88-10.17-14.53-16.5,4.44-8.22,21.73-13.35,42.08-13.35,3.3,0,6.68,.13,10.1,.41,21.79,1.8,40.73,6.25,66.25,12.94l.21,.05h-.04l3.55,.92c3.55-.86,7.21-1.79,10.9-2.75,7.02-1.87,13.86-3.84,19.92-5.62,6.17-1.86,12.49-3.85,18.94-5.99-1.86-1.37-2.49-3.01-1.76-4.59-.64-1.45-2.21-3.56-5.58-5.62-1.13-.67-2.31-1.15-3.53-1.5l-.21,.03c-1.56,4.22,0,8.54,4.39,12.32l-.37-.25c.12,.11,.23,.23,.37,.34-8.95-5.14-11.74-8.38-12.68-11.53h-.16l-.23,.54c-.66,3.37-1.4,7.22,5.13,13.68-10.6-5.28-13.94-9.53-15.18-13.46-.4,.91-.63,2.27-.4,4.19,.55,2.68,1.5,5.35,2.84,7.97-7.03-4.59-10.57-10.92-10.63-13.56-1.79-.34-3.08-.78-3.63-1.31-1.82-1.72-.93-4.83,3.68-7.27,2.71-1.43,13.05-3.04,19.56-3.04,2.61,0,4.6,.25,5.23,.89,.34,.33,.84,.63,1.45,.87,1.01,.23,1.93,.52,2.73,.87,1.82,.48,3.61,.94,4.32,1.67,.51,.51,.86,1.06,1.03,1.62,.92,.73,1.78,1.49,2.57,2.26,5.46-.68,11.1-1.02,16.76-1.02,.82,0,1.64,0,2.46,.02-3.84-3.48-7.2-4.8-7.08-4.82,.12-.03,.24-.05,.37-.08-4.97-2.4-11.97-5.1-21-7.12-17.58-3.91-28.92-4.58-31.73-4.7,.41,1.1,.84,2.21,1.37,3.37-.79-.86-1.61-1.98-2.45-3.3-5.09,1.52-9.86,3.26-14.21,5.2-6.68,2.88-13.37,7.24-14.53,8.02-.34,1.94-.47,3.14-.47,3.14,0,0-.11-1-.13-2.87-.78-.14-20.31-4.04-63.14-18.51-34.68-11.7-50.01-21.68-54.62-25.07-15.99,22.21-19.89,43.61-19.89,43.61,0,0-.32-1.12-.42-3.25-2.18-2.13-28.49-28.05-42.46-55.79-12.94-25.73-12.08-45.24-11.71-49.27-27.1,6.42-41.57,15.61-41.57,15.61,0,0,6.26-7.38,40.6-17.77,12.45-3.78,26.49-6.35,41.23-7.53,6.29-.54,12.67-.83,19.07-.84,6.66-.07,10.82,.05,11.08-.34,.85-1.13-4.58-3.41-4.58-3.41l.71,.07c3.45,.34,20.02,2.27,49.46,10.49,29.34,8.18,47.02,14.71,47.02,14.71,0,0-.18,.06-.66,.06,.16,.05,.32,.1,.48,.16,.23-.13,.46-.27,.71-.39-4.01-4.94-19.15-16.77-96.88-47.02l.94,.32-.13-.05,3.34,1.17c76.3,26.35,96.77,38.9,102.13,44.01,5.36,.32,9.41,2.41,9.42,4.87,0,1.51-1.54,2.94-4.16,3.86-.14,.96-.18,1.93-.11,2.89,.62,3.73,1.93,7.42,3.9,11.04,2,3.37,4.9,7.23,9.11,11.53,2.06,2.13,4.25,4.23,6.57,6.3,3.02,2.55,6.2,5.06,9.56,7.51,.75,.52,1.51,1.02,2.31,1.52,2.21,.6,4.35,1.26,6.36,1.98,3.12,1.01,6.09,2.12,8.89,3.31,4.84,1.9,1.24,3.4,1.24,3.4,0,0,6.73,3.31,18.95,7.73,8.2,2.89,16.73,5.58,25.57,8.06l.89,.24c.14-.02,4.16-.71,6-.71s3.24,.94,24.79,1.79c2.51,.1,4.79,.14,6.84,.14,15.57,0,18.79-2.5,19.92-2.5,2.74,.3,5.33,.82,7.63,1.55,2.55,.83,5.31,1.62,6.47,2.31l1.63-1c-.45-.23-1.31-.78-3.11-1.41-1.55-.55-2.92-.79,.86-1.03,.91-.09,1.83-.13,2.74-.13,1.12,0,2.23,.06,3.32,.19,1.12-.72,2.23-1.43,3.31-2.15-.84-.36-1.76-.67-2.74-.95-1.68-.47-3.1-.64,.63-1.08,1.46-.2,2.98-.3,4.51-.3,.31,0,.61,0,.92,.01l.6-.43c.85-.65,1.68-1.31,2.5-1.97-.56-.21-1.24-.47-2.13-.71-1.68-.48-3.08-.65,.6-1.08,1.31-.16,2.66-.27,4.02-.3,.97-.84,1.92-1.7,2.82-2.56-.34-.11-.69-.22-1.05-.32-1.68-.47-3.1-.64,.63-1.08,.69-.09,1.4-.16,2.11-.2,.93-.92,1.82-1.88,2.65-2.83l-1.15-.26c-1.79-.38-3.24-.46,.32-1.09,.75-.14,1.51-.26,2.29-.36,.61-.75,1.21-1.53,1.74-2.3l.16-.24c-1.87-.23-3.24-.21,0-1.1l.71-.18c.55-1.08,1.03-2.17,1.44-3.27-1.1-.02-1.44-.14,.34-.92,4.29-12.87-1.6-25.63-15.12-34.16-9.74-5.81-23.68-9.67-41.84-10.1-1.29-.03-2.54-.05-3.75-.05-7.76,0-14.16,.62-19.31,1.67l-.22,.07,.13-.06c-12.53,2.6-17.58,7.87-16.47,13.51,9.22,2.08,17.48,4.94,24.31,8.45,16.31,8.35,13.73,11.93,12.37,12.89l-.11,.12v-.05c-.23,.16-.41,.24-.41,.24l.07,.38v.12c.29,1.62,1.58,3.17,3.72,4.47,.88,.5,1.84,.96,2.89,1.39,2.29,.92,4.34,1.58,5.45,2.12,.6,.27,1,.54,1,.75,0,.84-10.58,5.25-14.8,5.25h-.2c-.77-.04-1.5-.13-2.21-.27-.92,.13-1.87,.22-2.84,.26,.45-.19,.89-.39,1.31-.6-.65-.16-1.27-.34-1.87-.53-1.61,.41-4.57,1.04-7.59,1.04-.14,0-.27,0-.4,0,2.02-.53,3.82-1.23,5.28-2.06-2.86-1.19-5.95-2.85-8.84-4.93-3.74-2.69-6.24-2.98-6.24-2.98,0,0-5.63,.42-3.42,5.67,2.19,5.25,7.47,7.81,6.24,8.94-1.01,.91-5.18,1.54-9.21,1.54-1.02,0-2.03-.04-2.98-.13-4.68-.42-10.31-.98-7.5-3.82,2.31-2.33,2.31-6.87-.71-9.12-.67-.43-1.5-.81-2.47-1.11-2.38-.58-13.5-3.52-15.43-4.77-2.45-1.54-2.23-8.23,.27-9.79-1.32-2-2.3-4.39-2.82-7.23-.24-1.22-.4-2.55-.37-3.95v-.09c-.16-7.83,6.31-14.19,16.94-18.8,.45-1.54,1.16-2.89,1.85-3.84,.94-1.3,1.39-1.78,1.61-1.78,.32,0,.12,1.06,.15,2.08,.03,.68,.09,1.35,.21,2.03,.9-.34,1.82-.64,2.76-.94,.8-1.69,2.1-3.32,3.84-4.85,1.06-.87,1.55-1.21,1.76-1.21,.35,0-.08,.95,0,2.02-.05,.75,.49,1.48,1.5,2.07,.78-.19,1.6-.37,2.45-.55,.62-1.47,1.78-2.88,3.42-4.17,.69-.54,1.11-.76,1.39-.76,.43,0,.5,.57,.71,1.37,.32,1.29,1.79,1.91,2.27,2.13l2.52-.36c.48-.87,3.21-2.5,5.8-3.58,.81-.35,1.18-.52,1.31-.52,.21,0-.18,.43-.34,1.3-.14,.66,.84,1.41,1.26,1.91l1.24-.1-1.19,.03s.79-.09,2.11-.19c.94-.77,2.21-1.45,3.73-2,1.13-.44,1.75-.62,2.07-.62,.5,0,.28,.45,.22,1-.04,.43-.02,.86,.08,1.3,1.19-.04,2.45-.08,3.84-.09,.48-.23,.98-.44,1.49-.64,1.23-.48,1.93-.7,2.29-.7,.49,0,.32,.4,0,1.08-.05,.08-.05,.17-.05,.26l3.28,.02c20,.3,42.76,4.92,59.36,13.93,8.98,4.81,15.49,10.47,19.05,16.57,1.13,1.8,2.04,3.63,2.74,5.47l.14-.12s0,.08-.08,.2c1.53,4.18,2.1,8.41,1.68,12.64-.83,8.31-3.01,16.59-6.53,24.76,2.48-.25,5.32-.66,8.42-1.37,9.13-2.08,11.87-3.98,13.1-4.4,.69-.2,1.5-.31,2.32-.31,.22,0,.44,.01,.66,.02,.2,.05,.4,.11,.58,.17,.62-.45,1.23-.91,1.84-1.37l2.03-1.7c2.46-2.05,4.72-4.16,6.79-6.3l.32-.35c.09-.3,.34-.57,.74-.8l.08-.09s-.32-.25-.59-.69c-.22-.34-.32-.7-.26-1.05,.02-.57,.29-1.14,.79-1.67,.92-1.15,2.53-2.4,4.05-3.48,2.08-1.56,4.21-2.96,4.99-3h.08c.26,0,.6,.05,.97,.15m62.66-99.35l.36-.23-.03,.06-.33,.17m-216.01-116.77c-9.93,0-19.85,1.72-27.43,5.16L27.6,645.68c-7.48,3.4-11.26,7.84-11.36,12.3v.35c.04,1.81,.69,3.62,1.95,5.36,1.84,2.53,4.97,4.92,9.41,6.93l455,206.81c7.58,3.44,17.51,5.16,27.43,5.16s19.85-1.72,27.42-5.16l455.01-206.81c4.29-1.95,7.37-4.25,9.23-6.69,1.38-1.81,2.09-3.71,2.13-5.61v-.34c-.09-4.46-3.88-8.9-11.36-12.3l-455.01-206.81c-7.58-3.44-17.51-5.16-27.42-5.16"/><path class="cls-4" d="M357.3,733.16h0c-31.05,.08-35.91,15.23-11.05,18.45,3.6,.47,7.79,.71,12.52,.71,12.8,0,29.51-1.74,49-5.38,4.02-.78,9.37-1.85,15.18-3.12l-4.82-1.05c-5.76-1.17-13.64-2.82-22.05-4.48-5.68-1.1-11.05-2.08-16.07-2.97l-1.5-.25c-3-.48-5.97-.9-8.86-1.22l-.45-.05-.52-.06c-4.1-.4-7.89-.57-11.37-.57"/></g></g></g></g><g class="cls-58"><g class="cls-8"><g><g class="cls-7"><path class="cls-5" d="M1004.33,237.08c-1.83,2.56-4.98,4.96-9.45,6.99l-455,206.81c-7.58,3.44-17.51,5.16-27.43,5.16s-19.85-1.72-27.42-5.16L30.01,244.07c-4.47-2.03-7.62-4.43-9.45-6.99l-.37,.17c-19.75,8.98-19.75,23.53,0,32.5l456.86,207.65c9.87,4.5,22.82,6.74,35.76,6.74s25.88-2.24,35.76-6.74l456.5-207.48c9.71-4.41,14.64-10.17,14.8-15.96v-.59c-.16-5.78-5.1-11.54-14.8-15.95l-.73-.33m-416.33,102.74c-13.95,0-25.34-5.26-25.34-11.74s11.39-11.66,25.34-11.66,25.34,5.21,25.34,11.66-11.34,11.74-25.34,11.74m126.55-171.42h-50.68v27.27c0,21.13-39.42,38.92-84.37,38.92h-134.9c-36.95,0-67.52,14.38-67.52,31.19v58.45c0,16.63,31.82,26.42,67.52,31.19,22.26,2.98,44.03,4.68,67.01,4.68,21.17,0,43.36-1.45,67.89-4.68,33.99-4.47,67.53-13.48,67.53-31.19v-23.39h-134.9v-7.8h202.42c39.26,0,53.88-12.44,67.53-31.12,14.1-19.23,13.5-37.72,0-62.39-9.69-17.75-28.22-31.12-67.53-31.12m-278.44-23.39c-14,0-25.34-5.21-25.34-11.66s11.34-11.73,25.34-11.73,25.34,5.26,25.34,11.73-11.39,11.66-25.34,11.66m75.04-42.21c-.67,0-1.34,0-2.01,0-23.08,.05-45.13,.94-64.54,2.5-57.15,4.59-67.52,14.2-67.52,31.91v23.39h135.05v7.79h-185.73c-39.25,0-73.62,10.73-84.37,31.12-12.4,23.38-12.95,37.97,0,62.39,9.59,18.17,32.53,31.12,71.77,31.12h46.43v-28.05c0-20.26,38.57-38.14,84.37-38.14h134.9c37.55,0,67.53-14.05,67.53-31.19v-58.45c0-16.64-30.88-29.13-67.53-31.91-22.53-1.7-45.88-2.5-68.35-2.5"/></g><g class="cls-10"><path class="cls-4" d="M436.11,121.61c-14,0-25.34,5.26-25.34,11.73s11.34,11.66,25.34,11.66,25.34-5.21,25.34-11.66-11.39-11.73-25.34-11.73"/><path class="cls-4" d="M588,316.42c-13.95,0-25.34,5.21-25.34,11.66s11.39,11.74,25.34,11.74,25.34-5.26,25.34-11.74-11.34-11.66-25.34-11.66"/><path class="cls-4" d="M511.62,360.09c-22.99,0-44.76-1.7-67.01-4.68-35.69-4.77-67.52-14.56-67.52-31.19v-58.45c0-16.82,30.57-31.19,67.52-31.19h134.9c44.95,0,84.37-17.78,84.37-38.92v-27.27h50.68c39.3,0,57.83,13.37,67.53,31.12,13.5,24.67,14.1,43.16,0,62.39-13.64,18.68-28.27,31.12-67.53,31.12h-202.42v7.8h134.9v23.39c0,17.71-33.53,26.72-67.53,31.19-24.52,3.23-46.72,4.68-67.89,4.68m-134.53-199.49v-23.39c0-17.71,10.37-27.32,67.52-31.91,19.4-1.56,41.45-2.45,64.54-2.5,.67,0,1.34,0,2.01,0,22.47,0,45.83,.8,68.35,2.5,36.65,2.78,67.53,15.27,67.53,31.91v58.45c0,17.14-29.98,31.19-67.53,31.19h-134.9c-45.79,0-84.37,17.88-84.37,38.14v28.05h-46.43c-39.25,0-62.18-12.95-71.77-31.12-12.95-24.41-12.4-39,0-62.39,10.75-20.39,45.12-31.12,84.37-31.12h185.73v-7.79h-135.05M512.45,7.17c-9.93,0-19.85,1.72-27.42,5.16L30.01,219.14c-7.48,3.4-11.26,7.84-11.36,12.3v.35c.04,1.79,.68,3.58,1.91,5.3,1.83,2.56,4.98,4.96,9.45,6.99l455.01,206.81c7.57,3.44,17.5,5.16,27.42,5.16s19.85-1.72,27.43-5.16l455-206.81c4.47-2.03,7.62-4.43,9.45-6.99,1.23-1.72,1.87-3.51,1.91-5.31v-.34c-.09-4.46-3.88-8.9-11.36-12.3L539.88,12.33c-7.58-3.44-17.51-5.16-27.43-5.16"/></g></g></g></g><g><path class="cls-2" d="M977.39,276.5l-.14,12c-.03,2.41-2,4.33-4.41,4.31-2.37-.03-4.28-1.95-4.31-4.31l-.14-12c-.03-2.49,1.96-4.52,4.45-4.55,2.49-.03,4.52,1.96,4.55,4.45,0,.03,0,.08,0,.11Z"/><path class="cls-15" d="M977.1,300.5l-.14,12c-.03,2.25-1.87,4.05-4.12,4.03-2.22-.03-4-1.82-4.03-4.03l-.14-12c-.03-2.33,1.84-4.24,4.17-4.27,2.33-.03,4.24,1.84,4.27,4.17,0,.03,0,.07,0,.1Z"/><path class="cls-13" d="M976.82,324.5l-.14,12c-.02,2.09-1.74,3.77-3.83,3.74-2.06-.02-3.72-1.69-3.74-3.74l-.14-12c-.03-2.17,1.71-3.95,3.89-3.98,2.17-.03,3.95,1.71,3.98,3.89,0,.02,0,.07,0,.09Z"/><path class="cls-14" d="M976.53,348.5l-.14,12c-.02,1.94-1.61,3.49-3.55,3.46-1.91-.02-3.44-1.57-3.46-3.46l-.14-12c-.02-2.01,1.59-3.67,3.6-3.69,2.01-.02,3.67,1.59,3.69,3.6,0,.02,0,.06,0,.09Z"/><path class="cls-18" d="M976.25,372.5l-.14,12c-.02,1.78-1.48,3.2-3.26,3.18-1.75-.02-3.16-1.44-3.18-3.18l-.14-12c-.02-1.86,1.47-3.38,3.32-3.4s3.38,1.47,3.4,3.32c0,.02,0,.06,0,.08Z"/><path class="cls-16" d="M975.96,396.5l-.14,12c-.02,1.62-1.35,2.92-2.97,2.9-1.6-.02-2.88-1.31-2.9-2.9l-.14-12c-.02-1.7,1.34-3.1,3.04-3.12s3.1,1.34,3.12,3.04c0,.02,0,.05,0,.07Z"/><path class="cls-17" d="M975.68,420.5l-.14,12c-.02,1.46-1.22,2.64-2.68,2.62-1.44-.02-2.6-1.19-2.62-2.62l-.14-12c-.02-1.54,1.22-2.81,2.76-2.83,1.54-.02,2.81,1.22,2.83,2.76,0,.02,0,.05,0,.07Z"/><path class="cls-11" d="M975.4,444.5l-.14,12c-.02,1.31-1.09,2.36-2.4,2.34-1.29-.02-2.32-1.06-2.34-2.34l-.14-12c-.02-1.39,1.09-2.52,2.48-2.54s2.52,1.09,2.54,2.48c0,.02,0,.04,0,.06Z"/><path class="cls-12" d="M975.11,468.5l-.14,12c-.01,1.15-.96,2.07-2.11,2.06-1.13-.01-2.05-.93-2.06-2.06l-.14-12c-.01-1.23,.97-2.24,2.2-2.25,1.23-.01,2.24,.97,2.25,2.2,0,.01,0,.04,0,.05Z"/><path class="cls-40" d="M974.83,492.5l-.14,12c-.01,.99-.83,1.79-1.82,1.78-.98-.01-1.77-.81-1.78-1.78l-.14-12c-.01-1.07,.85-1.95,1.92-1.97,1.07-.01,1.95,.85,1.97,1.92,0,.01,0,.03,0,.05Z"/><path class="cls-41" d="M974.54,516.5l-.14,12c0,.84-.7,1.51-1.53,1.5-.82,0-1.49-.68-1.5-1.5l-.14-12c-.01-.92,.72-1.67,1.64-1.68,.92-.01,1.67,.72,1.68,1.64,0,.01,0,.03,0,.04Z"/><path class="cls-39" d="M974.26,540.5l-.14,12c0,.68-.57,1.23-1.25,1.22-.67,0-1.21-.55-1.22-1.22l-.14-12c0-.76,.6-1.38,1.36-1.39s1.38,.6,1.39,1.36c0,0,0,.02,0,.03Z"/><path class="cls-38" d="M973.98,564.5l-.14,12c0,.52-.44,.94-.96,.94-.52,0-.93-.42-.94-.94l-.14-12c0-.6,.47-1.1,1.08-1.1,.6,0,1.1,.47,1.1,1.08,0,0,0,.02,0,.03Z"/><path class="cls-28" d="M973.69,588.5l-.14,12c0,.37-.3,.66-.67,.66-.36,0-.65-.3-.66-.66l-.14-12c0-.44,.35-.81,.8-.81,.44,0,.81,.35,.81,.8,0,0,0,.01,0,.02Z"/><path class="cls-34" d="M973.41,612.5l-.14,12c0,.21-.17,.38-.38,.37-.21,0-.37-.17-.37-.37l-.14-12c0-.29,.23-.52,.51-.53s.52,.23,.53,.51h0Z"/><path class="cls-36" d="M973.12,636.5l-.14,12c0,.05-.04,.09-.1,.09-.05,0-.09-.04-.09-.09l-.14-12c0-.13,.1-.24,.23-.24,.13,0,.24,.1,.24,.23h0Z"/></g><g><path class="cls-37" d="M57,276.5l-.14,12c-.03,2.41-2,4.33-4.41,4.31-2.37-.03-4.28-1.95-4.31-4.31l-.14-12c-.03-2.49,1.96-4.52,4.45-4.55,2.49-.03,4.52,1.96,4.55,4.45,0,.03,0,.08,0,.11Z"/><path class="cls-29" d="M56.72,300.5l-.14,12c-.03,2.25-1.87,4.05-4.12,4.03-2.22-.03-4-1.82-4.03-4.03l-.14-12c-.03-2.33,1.84-4.24,4.17-4.27,2.33-.03,4.24,1.84,4.27,4.17,0,.03,0,.07,0,.1Z"/><path class="cls-35" d="M56.43,324.5l-.14,12c-.02,2.09-1.74,3.77-3.83,3.74-2.06-.02-3.72-1.69-3.74-3.74l-.14-12c-.03-2.17,1.71-3.95,3.89-3.98,2.17-.03,3.95,1.71,3.98,3.89,0,.02,0,.07,0,.09Z"/><path class="cls-31" d="M56.15,348.5l-.14,12c-.02,1.94-1.61,3.49-3.55,3.46-1.91-.02-3.44-1.57-3.46-3.46l-.14-12c-.02-2.01,1.59-3.67,3.6-3.69,2.01-.02,3.67,1.59,3.69,3.6,0,.02,0,.06,0,.09Z"/><path class="cls-32" d="M55.86,372.5l-.14,12c-.02,1.78-1.48,3.2-3.26,3.18-1.75-.02-3.16-1.44-3.18-3.18l-.14-12c-.02-1.86,1.47-3.38,3.32-3.4s3.38,1.47,3.4,3.32c0,.02,0,.06,0,.08Z"/><path class="cls-30" d="M55.58,396.5l-.14,12c-.02,1.62-1.35,2.92-2.97,2.9-1.6-.02-2.88-1.31-2.9-2.9l-.14-12c-.02-1.7,1.34-3.1,3.04-3.12s3.1,1.34,3.12,3.04c0,.02,0,.05,0,.07Z"/><path class="cls-33" d="M55.29,420.5l-.14,12c-.02,1.46-1.22,2.64-2.68,2.62-1.44-.02-2.6-1.19-2.62-2.62l-.14-12c-.02-1.54,1.22-2.81,2.76-2.83,1.54-.02,2.81,1.22,2.83,2.76,0,.02,0,.05,0,.07Z"/><path class="cls-43" d="M55.01,444.5l-.14,12c-.02,1.31-1.09,2.36-2.4,2.34-1.29-.02-2.32-1.06-2.34-2.34l-.14-12c-.02-1.39,1.09-2.52,2.48-2.54s2.52,1.09,2.54,2.48c0,.02,0,.04,0,.06Z"/><path class="cls-51" d="M54.73,468.5l-.14,12c-.01,1.15-.96,2.07-2.11,2.06-1.13-.01-2.05-.93-2.06-2.06l-.14-12c-.01-1.23,.97-2.24,2.2-2.25,1.23-.01,2.24,.97,2.25,2.2,0,.01,0,.04,0,.05Z"/><path class="cls-44" d="M54.44,492.5l-.14,12c-.01,.99-.83,1.79-1.82,1.78-.98-.01-1.77-.81-1.78-1.78l-.14-12c-.01-1.07,.85-1.95,1.92-1.97,1.07-.01,1.95,.85,1.97,1.92,0,.01,0,.03,0,.05Z"/><path class="cls-42" d="M54.16,516.5l-.14,12c0,.84-.7,1.51-1.53,1.5-.82,0-1.49-.68-1.5-1.5l-.14-12c-.01-.92,.72-1.67,1.64-1.68,.92-.01,1.67,.72,1.68,1.64,0,.01,0,.03,0,.04Z"/><path class="cls-52" d="M53.87,540.5l-.14,12c0,.68-.57,1.23-1.25,1.22-.67,0-1.21-.55-1.22-1.22l-.14-12c0-.76,.6-1.38,1.36-1.39s1.38,.6,1.39,1.36c0,0,0,.02,0,.03Z"/><path class="cls-53" d="M53.59,564.5l-.14,12c0,.52-.44,.94-.96,.94-.52,0-.93-.42-.94-.94l-.14-12c0-.6,.47-1.1,1.08-1.1,.6,0,1.1,.47,1.1,1.08,0,0,0,.02,0,.03Z"/><path class="cls-55" d="M53.31,588.5l-.14,12c0,.37-.3,.66-.67,.66-.36,0-.65-.3-.66-.66l-.14-12c0-.44,.35-.81,.8-.81,.44,0,.81,.35,.81,.8,0,0,0,.01,0,.02Z"/><path class="cls-57" d="M53.02,612.5l-.14,12c0,.21-.17,.38-.38,.37-.21,0-.37-.17-.37-.37l-.14-12c0-.29,.23-.52,.51-.53s.52,.23,.53,.51h0Z"/><path class="cls-56" d="M52.74,636.5l-.14,12c0,.05-.04,.09-.1,.09-.05,0-.09-.04-.09-.09l-.14-12c0-.13,.1-.24,.23-.24,.13,0,.24,.1,.24,.23h0Z"/></g><g><path class="cls-54" d="M518,477.5l-.14,12c-.03,2.41-2,4.33-4.41,4.31-2.37-.03-4.28-1.95-4.31-4.31l-.14-12c-.03-2.49,1.96-4.52,4.45-4.55,2.49-.03,4.52,1.96,4.55,4.45,0,.03,0,.08,0,.11Z"/><path class="cls-48" d="M517.72,501.5l-.14,12c-.03,2.25-1.87,4.05-4.12,4.03-2.22-.03-4-1.82-4.03-4.03l-.14-12c-.03-2.33,1.84-4.24,4.17-4.27,2.33-.03,4.24,1.84,4.27,4.17,0,.03,0,.07,0,.1Z"/><path class="cls-46" d="M517.43,525.5l-.14,12c-.02,2.09-1.74,3.77-3.83,3.74-2.06-.02-3.72-1.69-3.74-3.74l-.14-12c-.03-2.17,1.71-3.95,3.89-3.98,2.17-.03,3.95,1.71,3.98,3.89,0,.02,0,.07,0,.09Z"/><path class="cls-50" d="M517.15,549.5l-.14,12c-.02,1.94-1.61,3.49-3.55,3.46-1.91-.02-3.44-1.57-3.46-3.46l-.14-12c-.02-2.01,1.59-3.67,3.6-3.69,2.01-.02,3.67,1.59,3.69,3.6,0,.02,0,.06,0,.09Z"/><path class="cls-47" d="M516.86,573.5l-.14,12c-.02,1.78-1.48,3.2-3.26,3.18-1.75-.02-3.16-1.44-3.18-3.18l-.14-12c-.02-1.86,1.47-3.38,3.32-3.4s3.38,1.47,3.4,3.32c0,.02,0,.06,0,.08Z"/><path class="cls-45" d="M516.58,597.5l-.14,12c-.02,1.62-1.35,2.92-2.97,2.9-1.6-.02-2.88-1.31-2.9-2.9l-.14-12c-.02-1.7,1.34-3.1,3.04-3.12s3.1,1.34,3.12,3.04c0,.02,0,.05,0,.07Z"/><path class="cls-49" d="M516.29,621.5l-.14,12c-.02,1.46-1.22,2.64-2.68,2.62-1.44-.02-2.6-1.19-2.62-2.62l-.14-12c-.02-1.54,1.22-2.81,2.76-2.83,1.54-.02,2.81,1.22,2.83,2.76,0,.02,0,.05,0,.07Z"/><path class="cls-20" d="M516.01,645.5l-.14,12c-.02,1.31-1.09,2.36-2.4,2.34-1.29-.02-2.32-1.06-2.34-2.34l-.14-12c-.02-1.39,1.09-2.52,2.48-2.54s2.52,1.09,2.54,2.48c0,.02,0,.04,0,.06Z"/><path class="cls-19" d="M515.73,669.5l-.14,12c-.01,1.15-.96,2.07-2.11,2.06-1.13-.01-2.05-.93-2.06-2.06l-.14-12c-.01-1.23,.97-2.24,2.2-2.25,1.23-.01,2.24,.97,2.25,2.2,0,.01,0,.04,0,.05Z"/><path class="cls-22" d="M515.44,693.5l-.14,12c-.01,.99-.83,1.79-1.82,1.78-.98-.01-1.77-.81-1.78-1.78l-.14-12c-.01-1.07,.85-1.95,1.92-1.97,1.07-.01,1.95,.85,1.97,1.92,0,.01,0,.03,0,.05Z"/><path class="cls-21" d="M515.16,717.5l-.14,12c0,.84-.7,1.51-1.53,1.5-.82,0-1.49-.68-1.5-1.5l-.14-12c-.01-.92,.72-1.67,1.64-1.68,.92-.01,1.67,.72,1.68,1.64,0,.01,0,.03,0,.04Z"/><path class="cls-25" d="M514.87,741.5l-.14,12c0,.68-.57,1.23-1.25,1.22-.67,0-1.21-.55-1.22-1.22l-.14-12c0-.76,.6-1.38,1.36-1.39s1.38,.6,1.39,1.36c0,0,0,.02,0,.03Z"/><path class="cls-23" d="M514.59,765.5l-.14,12c0,.52-.44,.94-.96,.94-.52,0-.93-.42-.94-.94l-.14-12c0-.6,.47-1.1,1.08-1.1,.6,0,1.1,.47,1.1,1.08,0,0,0,.02,0,.03Z"/><path class="cls-24" d="M514.31,789.5l-.14,12c0,.37-.3,.66-.67,.66-.36,0-.65-.3-.66-.66l-.14-12c0-.44,.35-.81,.8-.81,.44,0,.81,.35,.81,.8,0,0,0,.01,0,.02Z"/><path class="cls-26" d="M514.02,813.5l-.14,12c0,.21-.17,.38-.38,.37-.21,0-.37-.17-.37-.37l-.14-12c0-.29,.23-.52,.51-.53s.52,.23,.53,.51h0Z"/><path class="cls-27" d="M513.74,837.5l-.14,12c0,.05-.04,.09-.1,.09-.05,0-.09-.04-.09-.09l-.14-12c0-.13,.1-.24,.23-.24,.13,0,.24,.1,.24,.23h0Z"/></g></svg>